HIERARCHY
ROOT Hips
{
	OFFSET -338.882294 -555.210510 88.995560
	CHANNELS 6 Xposition Yposition Zposition Zrotation Yrotation Xrotation
	JOINT Spine
	{
		OFFSET 0.000000 2.080078 8.814247
		CHANNELS 6 Xposition Yposition Zposition Zrotation Yrotation Xrotation
		JOINT Spine1
		{
			OFFSET 0.000000 0.000000 8.844139
			CHANNELS 6 Xposition Yposition Zposition Zrotation Yrotation Xrotation
			JOINT Spine2
			{
				OFFSET 0.000000 0.000000 11.682266
				CHANNELS 6 Xposition Yposition Zposition Zrotation Yrotation Xrotation
				JOINT Spine3
				{
					OFFSET 0.000000 0.000000 11.746704
					CHANNELS 6 Xposition Yposition Zposition Zrotation Yrotation Xrotation
					JOINT Neck
					{
						OFFSET 0.000000 0.000000 17.658264
						CHANNELS 6 Xposition Yposition Zposition Zrotation Yrotation Xrotation
						JOINT Neck1
						{
							OFFSET 0.000000 0.000000 5.101517
							CHANNELS 6 Xposition Yposition Zposition Zrotation Yrotation Xrotation
							JOINT Head
							{
								OFFSET 0.000000 0.000000 5.101517
								CHANNELS 6 Xposition Yposition Zposition Zrotation Yrotation Xrotation
								JOINT HeadEnd
								{
									OFFSET 0.000000 0.000000 11.655090
									CHANNELS 6 Xposition Yposition Zposition Zrotation Yrotation Xrotation
									End Site
									{
										OFFSET 0.000000 0.000000 0.100006
									}
								}
							}
						}
					}
					JOINT RightShoulder
					{
						OFFSET -2.625397 0.000000 11.175217
						CHANNELS 6 Xposition Yposition Zposition Zrotation Yrotation Xrotation
						JOINT RightArm
						{
							OFFSET 0.000000 0.000000 10.434723
							CHANNELS 6 Xposition Yposition Zposition Zrotation Yrotation Xrotation
							JOINT RightForeArm
							{
								OFFSET 0.000000 0.000000 29.628418
								CHANNELS 6 Xposition Yposition Zposition Zrotation Yrotation Xrotation
								JOINT RightHand
								{
									OFFSET 0.000000 0.000000 22.857605
									CHANNELS 6 Xposition Yposition Zposition Zrotation Yrotation Xrotation
									JOINT RightHandThumb1
									{
										OFFSET -2.867310 -2.944275 3.959564
										CHANNELS 6 Xposition Yposition Zposition Zrotation Yrotation Xrotation
										JOINT RightHandThumb2
										{
											OFFSET 0.000000 0.000000 3.350403
											CHANNELS 6 Xposition Yposition Zposition Zrotation Yrotation Xrotation
											JOINT RightHandThumb3
											{
												OFFSET 0.000000 0.000000 3.756516
												CHANNELS 6 Xposition Yposition Zposition Zrotation Yrotation Xrotation
												JOINT RightHandThumb4
												{
													OFFSET 0.000000 0.000000 3.147339
													CHANNELS 6 Xposition Yposition Zposition Zrotation Yrotation Xrotation
													End Site
													{
														OFFSET 0.000000 0.000000 0.100006
													}
												}
											}
										}
									}
									JOINT RightHandIndex1
									{
										OFFSET -0.086761 -2.345276 10.030899
										CHANNELS 6 Xposition Yposition Zposition Zrotation Yrotation Xrotation
										JOINT RightHandIndex2
										{
											OFFSET 0.000000 0.000000 4.061096
											CHANNELS 6 Xposition Yposition Zposition Zrotation Yrotation Xrotation
											JOINT RightHandIndex3
											{
												OFFSET 0.000000 0.000000 3.248871
												CHANNELS 6 Xposition Yposition Zposition Zrotation Yrotation Xrotation
												JOINT RightHandIndex4
												{
													OFFSET 0.000000 0.000000 2.639709
													CHANNELS 6 Xposition Yposition Zposition Zrotation Yrotation Xrotation
													End Site
													{
														OFFSET 0.000000 0.000000 0.100006
													}
												}
											}
										}
									}
									JOINT RightHandMiddle1
									{
										OFFSET 0.104095 -0.006775 9.502945
										CHANNELS 6 Xposition Yposition Zposition Zrotation Yrotation Xrotation
										JOINT RightHandMiddle2
										{
											OFFSET 0.000000 0.000000 4.568726
											CHANNELS 6 Xposition Yposition Zposition Zrotation Yrotation Xrotation
											JOINT RightHandMiddle3
											{
												OFFSET 0.000000 0.000000 3.654984
												CHANNELS 6 Xposition Yposition Zposition Zrotation Yrotation Xrotation
												JOINT RightHandMiddle4
												{
													OFFSET 0.000000 0.000000 2.741241
													CHANNELS 6 Xposition Yposition Zposition Zrotation Yrotation Xrotation
													End Site
													{
														OFFSET 0.000000 0.000000 0.100006
													}
												}
											}
										}
									}
									JOINT RightHandRing1
									{
										OFFSET 0.086761 2.267456 8.921707
										CHANNELS 6 Xposition Yposition Zposition Zrotation Yrotation Xrotation
										JOINT RightHandRing2
										{
											OFFSET 0.000000 0.000000 4.061096
											CHANNELS 6 Xposition Yposition Zposition Zrotation Yrotation Xrotation
											JOINT RightHandRing3
											{
												OFFSET 0.000000 0.000000 3.654984
												CHANNELS 6 Xposition Yposition Zposition Zrotation Yrotation Xrotation
												JOINT RightHandRing4
												{
													OFFSET 0.000000 0.000000 2.741241
													CHANNELS 6 Xposition Yposition Zposition Zrotation Yrotation Xrotation
													End Site
													{
														OFFSET 0.000000 0.000000 0.100006
													}
												}
											}
										}
									}
									JOINT RightHandPinky1
									{
										OFFSET -0.173492 4.467224 7.976990
										CHANNELS 6 Xposition Yposition Zposition Zrotation Yrotation Xrotation
										JOINT RightHandPinky2
										{
											OFFSET 0.000000 0.000000 3.350403
											CHANNELS 6 Xposition Yposition Zposition Zrotation Yrotation Xrotation
											JOINT RightHandPinky3
											{
												OFFSET 0.000000 0.000000 2.842758
												CHANNELS 6 Xposition Yposition Zposition Zrotation Yrotation Xrotation
												JOINT RightHandPinky4
												{
													OFFSET 0.000000 0.000000 2.639709
													CHANNELS 6 Xposition Yposition Zposition Zrotation Yrotation Xrotation
													End Site
													{
														OFFSET 0.000000 0.000000 0.100006
													}
												}
											}
										}
									}
									JOINT RightForeArmEnd
									{
										OFFSET 0.000000 0.000000 0.000000
										CHANNELS 6 Xposition Yposition Zposition Zrotation Yrotation Xrotation
										End Site
										{
											OFFSET 0.000000 0.000000 0.100006
										}
									}
								}
								JOINT RightArmEnd
								{
									OFFSET 0.000000 0.000000 0.000000
									CHANNELS 6 Xposition Yposition Zposition Zrotation Yrotation Xrotation
									End Site
									{
										OFFSET 0.000000 0.000000 0.100006
									}
								}
							}
						}
					}
					JOINT LeftShoulder
					{
						OFFSET 2.625397 0.000000 11.175217
						CHANNELS 6 Xposition Yposition Zposition Zrotation Yrotation Xrotation
						JOINT LeftArm
						{
							OFFSET 0.000000 0.000000 10.813629
							CHANNELS 6 Xposition Yposition Zposition Zrotation Yrotation Xrotation
							JOINT LeftForeArm
							{
								OFFSET 0.000000 0.000000 28.724777
								CHANNELS 6 Xposition Yposition Zposition Zrotation Yrotation Xrotation
								JOINT LeftHand
								{
									OFFSET 0.644379 0.328857 25.716171
									CHANNELS 6 Xposition Yposition Zposition Zrotation Yrotation Xrotation
									JOINT LeftHandThumb1
									{
										OFFSET 2.867310 -2.944275 3.959564
										CHANNELS 6 Xposition Yposition Zposition Zrotation Yrotation Xrotation
										JOINT LeftHandThumb2
										{
											OFFSET 0.000000 0.000000 3.350403
											CHANNELS 6 Xposition Yposition Zposition Zrotation Yrotation Xrotation
											JOINT LeftHandThumb3
											{
												OFFSET 0.000000 0.000000 3.756516
												CHANNELS 6 Xposition Yposition Zposition Zrotation Yrotation Xrotation
												JOINT LeftHandThumb4
												{
													OFFSET 0.000000 0.000000 3.100006
													CHANNELS 6 Xposition Yposition Zposition Zrotation Yrotation Xrotation
													End Site
													{
														OFFSET 0.000000 0.000000 0.100006
													}
												}
											}
										}
									}
									JOINT LeftHandIndex1
									{
										OFFSET 0.086761 -2.345276 10.030899
										CHANNELS 6 Xposition Yposition Zposition Zrotation Yrotation Xrotation
										JOINT LeftHandIndex2
										{
											OFFSET 0.000000 0.000000 4.061096
											CHANNELS 6 Xposition Yposition Zposition Zrotation Yrotation Xrotation
											JOINT LeftHandIndex3
											{
												OFFSET 0.000000 0.000000 3.248871
												CHANNELS 6 Xposition Yposition Zposition Zrotation Yrotation Xrotation
												JOINT LeftHandIndex4
												{
													OFFSET 0.000000 0.000000 2.639709
													CHANNELS 6 Xposition Yposition Zposition Zrotation Yrotation Xrotation
													End Site
													{
														OFFSET 0.000000 0.000000 0.100006
													}
												}
											}
										}
									}
									JOINT LeftHandMiddle1
									{
										OFFSET -0.104095 -0.006775 9.502945
										CHANNELS 6 Xposition Yposition Zposition Zrotation Yrotation Xrotation
										JOINT LeftHandMiddle2
										{
											OFFSET 0.000000 0.000000 4.568726
											CHANNELS 6 Xposition Yposition Zposition Zrotation Yrotation Xrotation
											JOINT LeftHandMiddle3
											{
												OFFSET 0.000000 0.000000 3.654984
												CHANNELS 6 Xposition Yposition Zposition Zrotation Yrotation Xrotation
												JOINT LeftHandMiddle4
												{
													OFFSET 0.000000 0.000000 2.741241
													CHANNELS 6 Xposition Yposition Zposition Zrotation Yrotation Xrotation
													End Site
													{
														OFFSET 0.000000 0.000000 0.100006
													}
												}
											}
										}
									}
									JOINT LeftHandRing1
									{
										OFFSET -0.086761 2.267456 8.921707
										CHANNELS 6 Xposition Yposition Zposition Zrotation Yrotation Xrotation
										JOINT LeftHandRing2
										{
											OFFSET 0.000000 0.000000 4.061096
											CHANNELS 6 Xposition Yposition Zposition Zrotation Yrotation Xrotation
											JOINT LeftHandRing3
											{
												OFFSET 0.000000 0.000000 3.654984
												CHANNELS 6 Xposition Yposition Zposition Zrotation Yrotation Xrotation
												JOINT LeftHandRing4
												{
													OFFSET 0.000000 0.000000 2.741241
													CHANNELS 6 Xposition Yposition Zposition Zrotation Yrotation Xrotation
													End Site
													{
														OFFSET 0.000000 0.000000 0.100006
													}
												}
											}
										}
									}
									JOINT LeftHandPinky1
									{
										OFFSET 0.173492 4.467224 7.976990
										CHANNELS 6 Xposition Yposition Zposition Zrotation Yrotation Xrotation
										JOINT LeftHandPinky2
										{
											OFFSET 0.000000 0.000000 3.350403
											CHANNELS 6 Xposition Yposition Zposition Zrotation Yrotation Xrotation
											JOINT LeftHandPinky3
											{
												OFFSET 0.000000 0.000000 2.842758
												CHANNELS 6 Xposition Yposition Zposition Zrotation Yrotation Xrotation
												JOINT LeftHandPinky4
												{
													OFFSET 0.000000 0.000000 2.639709
													CHANNELS 6 Xposition Yposition Zposition Zrotation Yrotation Xrotation
													End Site
													{
														OFFSET 0.000000 0.000000 0.100006
													}
												}
											}
										}
									}
									JOINT LeftForeArmEnd
									{
										OFFSET 0.000000 0.000000 0.000000
										CHANNELS 6 Xposition Yposition Zposition Zrotation Yrotation Xrotation
										End Site
										{
											OFFSET 0.000000 0.000000 0.100006
										}
									}
								}
								JOINT LeftArmEnd
								{
									OFFSET 0.000000 0.000000 0.000000
									CHANNELS 6 Xposition Yposition Zposition Zrotation Yrotation Xrotation
									End Site
									{
										OFFSET 0.000000 0.000000 0.100006
									}
								}
							}
						}
					}
				}
			}
		}
	}
	JOINT RightUpLeg
	{
		OFFSET -11.289948 0.000000 0.000000
		CHANNELS 6 Xposition Yposition Zposition Zrotation Yrotation Xrotation
		JOINT RightLeg
		{
			OFFSET 0.000000 0.000000 -38.200321
			CHANNELS 6 Xposition Yposition Zposition Zrotation Yrotation Xrotation
			JOINT RightFoot
			{
				OFFSET 0.000000 0.000000 -39.900856
				CHANNELS 6 Xposition Yposition Zposition Zrotation Yrotation Xrotation
				JOINT RightToeBase
				{
					OFFSET 0.000000 -15.261658 0.000001
					CHANNELS 6 Xposition Yposition Zposition Zrotation Yrotation Xrotation
					JOINT RightToeBaseEnd
					{
						OFFSET 0.000000 -7.370728 0.000001
						CHANNELS 6 Xposition Yposition Zposition Zrotation Yrotation Xrotation
						End Site
						{
							OFFSET 0.000000 0.000000 0.100000
						}
					}
				}
				JOINT RightLegEnd
				{
					OFFSET 0.000000 0.000000 0.000000
					CHANNELS 6 Xposition Yposition Zposition Zrotation Yrotation Xrotation
					End Site
					{
						OFFSET 0.000000 0.000000 0.100000
					}
				}
			}
			JOINT RightUpLegEnd
			{
				OFFSET 0.000000 0.000000 0.000000
				CHANNELS 6 Xposition Yposition Zposition Zrotation Yrotation Xrotation
				End Site
				{
					OFFSET 0.000000 0.000000 0.099998
				}
			}
		}
	}
	JOINT LeftUpLeg
	{
		OFFSET 11.315674 0.000000 0.000000
		CHANNELS 6 Xposition Yposition Zposition Zrotation Yrotation Xrotation
		JOINT LeftLeg
		{
			OFFSET 0.000000 0.000000 -38.200321
			CHANNELS 6 Xposition Yposition Zposition Zrotation Yrotation Xrotation
			JOINT LeftFoot
			{
				OFFSET 0.000000 0.000000 -39.900856
				CHANNELS 6 Xposition Yposition Zposition Zrotation Yrotation Xrotation
				JOINT LeftToeBase
				{
					OFFSET 0.000000 -15.261658 0.000001
					CHANNELS 6 Xposition Yposition Zposition Zrotation Yrotation Xrotation
					JOINT LeftToeBaseEnd
					{
						OFFSET 0.000000 -7.539978 0.000001
						CHANNELS 6 Xposition Yposition Zposition Zrotation Yrotation Xrotation
						End Site
						{
							OFFSET 0.000000 0.000000 0.100000
						}
					}
				}
				JOINT LeftLegEnd
				{
					OFFSET 0.000000 0.000000 0.000000
					CHANNELS 6 Xposition Yposition Zposition Zrotation Yrotation Xrotation
					End Site
					{
						OFFSET 0.000000 0.000000 0.100000
					}
				}
			}
			JOINT LeftUpLegEnd
			{
				OFFSET 0.000000 0.000000 0.000000
				CHANNELS 6 Xposition Yposition Zposition Zrotation Yrotation Xrotation
				End Site
				{
					OFFSET 0.000000 0.000000 0.099998
				}
			}
		}
	}
}
MOTION
Frames: 2
Frame Time: 0.016667
-27.220215 -9.679382 86.197571 18.900626 -1.307096 -9.564769 0.000023 2.080106 8.814251 -0.372055 -3.642678 11.928238 -0.000012 0.000019 8.844151 -0.513255 -0.932417 6.060805 0.000005 -0.000020 11.682281 -1.838813 -0.621424 7.457501 -0.000026 -0.000014 11.746692 -0.154681 -1.070356 6.110662 0.000015 -0.000019 17.658270 4.396833 -2.162661 -3.540867 0.000014 -0.000014 5.101540 6.432159 -2.339559 -6.277439 -0.000003 0.000004 5.101532 -0.553037 0.278508 -13.395917 -0.000011 -0.000010 11.655060 0.000002 0.000000 0.000000 -2.625401 -0.000022 11.175209 14.731733 -87.434215 0.766701 -0.000008 -0.000015 10.434742 -31.288437 -60.447632 43.270813 0.000000 -0.000038 29.628460 23.256741 0.558839 26.935158 0.000042 -0.000053 22.857601 39.548373 -2.440711 1.155555 -2.867292 -2.944244 3.959595 31.729797 -22.942383 43.363833 -0.000008 0.000000 3.350395 -25.337312 11.059108 -43.399913 0.000008 0.000000 3.756546 -16.725726 9.787548 -29.562397 0.000004 -0.000005 3.147338 0.000001 -0.000000 -0.000000 -0.086761 -2.345272 10.030876 -32.784078 -56.802804 25.941250 -0.000023 0.000010 4.061104 -2.350257 -42.325805 7.353932 0.000013 0.000014 3.248871 -2.850232 -42.325723 7.353901 -0.000011 -0.000003 2.639716 0.000001 0.000000 -0.000002 0.104103 -0.006772 9.502937 -21.108401 -55.042063 18.946479 -0.000023 -0.000023 4.568716 -0.422961 -40.094699 2.528906 -0.000031 -0.000003 3.654999 -0.922926 -40.094710 2.528882 0.000021 0.000030 2.741242 0.000003 0.000000 0.000000 0.086742 2.267464 8.921730 -6.640681 -55.456758 11.503140 -0.000002 0.000021 4.061115 -0.006377 -38.812909 -2.820019 0.000008 -0.000012 3.654989 0.993615 -38.812844 -2.820006 0.000003 -0.000002 2.741259 -0.000000 -0.000001 0.000001 -0.173485 4.467258 7.976990 8.317819 -52.609945 3.359858 0.000008 0.000015 3.350407 0.469611 -34.998166 -7.822082 0.000027 -0.000026 2.842762 2.469607 -34.998224 -7.822098 0.000011 0.000002 2.639682 -0.000001 -0.000004 0.000002 -0.000020 0.000001 -0.000003 0.000000 0.000001 -0.000001 -0.000034 -0.000011 0.000003 0.000002 0.000000 -0.000000 2.625416 0.000002 11.175222 -10.936390 81.094863 -0.343357 -0.000008 0.000030 10.813637 54.710577 56.429875 54.425464 -0.000042 -0.000011 28.724829 -7.463623 -0.337586 40.919616 0.644339 0.328878 25.716167 3.070057 7.711873 -15.331072 2.867306 -2.944290 3.959610 -31.491117 19.956143 47.542341 0.000000 0.000023 3.350399 18.670585 -10.260332 -32.718973 -0.000008 0.000023 3.756485 12.336346 -8.289246 -22.315546 -0.000001 -0.000004 3.099992 0.000001 0.000003 0.000000 0.086803 -2.345270 10.030907 -178.214880 -66.198378 2.026536 0.000001 -0.000016 4.061085 0.499941 0.000317 0.000252 0.000015 -0.000024 3.248870 -0.000191 -0.000007 -0.006223 -0.000007 -0.000006 2.639725 0.000000 -0.000001 0.000001 -0.104073 -0.006760 9.502972 -162.057207 -70.030305 -32.741171 0.000008 -0.000006 4.568725 0.499920 -0.000161 0.000432 0.000009 0.000015 3.654988 -0.000048 -0.000005 -0.000010 0.000020 0.000007 2.741207 -0.000000 -0.000000 -0.000001 -0.086760 2.267477 8.921717 84.314492 75.444234 88.949396 0.000038 -0.000009 4.061123 2.983143 62.046279 6.618292 0.000010 0.000024 3.655006 3.983179 62.046299 6.618341 -0.000009 0.000005 2.741260 -0.000001 0.000001 -0.000000 0.173519 4.467224 7.976986 89.445760 67.386728 103.705064 0.000008 -0.000032 3.350403 11.757897 62.894820 22.319308 0.000015 0.000019 2.842773 13.757933 62.894854 22.319340 0.000012 0.000002 2.639695 -0.000000 0.000002 -0.000000 0.000007 -0.000008 0.000029 0.000001 0.000001 -0.000001 0.000010 0.000015 0.000000 -0.000003 0.000004 -0.000001 -11.289963 -0.000047 0.000002 -10.400014 1.060918 -2.624727 -0.000043 0.000018 -38.200329 -0.113738 0.070652 29.867167 -0.000017 -0.000003 -39.900860 -10.121412 1.016529 6.257620 0.000040 -15.261702 0.000022 0.816135 0.573475 -17.597190 -0.000000 -7.370728 0.000001 -0.000000 -0.000000 -0.000001 -0.000031 -0.000000 0.000000 0.000000 0.000000 0.000003 -0.000035 -0.000000 -0.000006 0.000000 -0.000000 -0.000000 11.315679 -0.000037 -0.000006 -2.444431 -2.320338 -13.780637 -0.000047 0.000012 -38.200363 -0.365867 0.227206 31.840286 -0.000031 -0.000020 -39.900871 19.861553 -1.244336 13.696198 0.000005 -15.261713 0.000022 -0.400873 -0.122890 -21.131885 -0.000025 -7.540029 -0.000000 -0.000002 -0.000000 -0.000000 -0.000002 -0.000032 0.000001 0.000006 0.000002 0.000000 -0.000046 0.000002 0.000002 -0.000001 -0.000000 0.000000 
-27.054626 -9.818237 86.252800 19.772954 -1.357999 -9.960648 -0.000004 2.080051 8.814241 -0.399030 -3.597026 12.014224 -0.000011 -0.000010 8.844128 -0.578541 -0.842733 6.064432 -0.000012 -0.000001 11.682284 -1.820865 -0.556045 7.502375 -0.000039 -0.000019 11.746678 -0.219106 -0.923344 6.201769 -0.000007 -0.000028 17.658268 3.794077 -2.049339 -3.551598 0.000010 0.000000 5.101547 5.773105 -2.081542 -6.319374 -0.000046 -0.000001 5.101519 -0.508613 0.286906 -13.523417 0.000010 -0.000008 11.655076 0.000001 0.000000 -0.000000 -2.625425 -0.000018 11.175195 14.685718 -87.026329 0.765173 -0.000004 -0.000004 10.434731 -33.515233 -59.362356 44.757246 0.000011 0.000000 29.628407 22.483282 0.817909 32.214502 0.000024 -0.000048 22.857594 38.380469 -1.227032 1.471102 -2.867304 -2.944275 3.959534 31.758150 -23.131867 43.104197 -0.000031 0.000015 3.350433 -25.758148 11.067887 -44.071140 -0.000015 0.000000 3.756535 -17.006280 9.862955 -30.019679 0.000007 0.000003 3.147339 -0.000001 -0.000000 -0.000000 -0.086792 -2.345274 10.030891 -34.539010 -58.176580 28.392333 0.000008 0.000023 4.061108 -2.572043 -43.556413 7.679493 0.000002 0.000015 3.248871 -3.072061 -43.556366 7.679488 0.000010 0.000018 2.639718 -0.000001 0.000000 -0.000002 0.104080 -0.006784 9.502945 -22.317515 -56.593373 20.700990 -0.000016 -0.000026 4.568760 -0.495120 -41.307171 2.639574 0.000016 -0.000019 3.654993 -0.995122 -41.307171 2.639571 0.000005 0.000001 2.741266 0.000000 0.000001 -0.000000 0.086739 2.267435 8.921711 -7.267926 -57.193477 12.361159 -0.000011 0.000009 4.061096 0.072732 -40.026606 -2.944581 0.000000 -0.000021 3.655001 1.072704 -40.026609 -2.944562 -0.000004 0.000008 2.741264 0.000000 -0.000002 0.000003 -0.173500 4.467228 7.976999 8.340855 -54.311079 3.334141 -0.000008 -0.000017 3.350418 0.664437 -36.127367 -8.157051 0.000006 -0.000029 2.842762 2.664442 -36.127367 -8.157060 -0.000015 0.000013 2.639722 -0.000001 -0.000001 0.000003 0.000003 -0.000011 -0.000006 -0.000000 -0.000002 0.000002 -0.000003 0.000006 0.000002 -0.000001 -0.000000 -0.000000 2.625404 0.000003 11.175218 -10.461577 81.417849 -0.305029 0.000008 -0.000025 10.813610 55.092545 55.612479 51.460288 -0.000013 0.000031 28.724791 -8.979760 -0.139019 40.626252 0.644321 0.328817 25.716187 2.145748 7.165141 -14.930414 2.867287 -2.944275 3.959579 -31.494378 20.139516 47.279994 0.000000 0.000000 3.350399 19.081196 -10.345839 -33.382174 0.000015 -0.000008 3.756500 12.604231 -8.398818 -22.764020 -0.000003 0.000001 3.099984 -0.000000 -0.000003 0.000001 0.086748 -2.345329 10.030911 -178.475725 -65.186929 1.735366 0.000034 -0.000012 4.061103 0.499942 0.000538 0.000261 0.000006 -0.000003 3.248875 -0.000189 0.000004 -0.006275 0.000045 -0.000012 2.639691 0.000001 -0.000002 0.000003 -0.104095 -0.006794 9.502945 -163.099358 -68.991413 -32.373956 -0.000006 -0.000026 4.568731 0.499923 0.000002 0.000437 -0.000015 0.000026 3.654978 -0.000049 -0.000004 -0.000012 0.000042 0.000072 2.741261 -0.000001 -0.000003 -0.000001 -0.086743 2.267445 8.921705 79.909375 75.295760 85.172520 0.000034 0.000014 4.061113 2.802567 61.296010 6.413172 -0.000004 0.000025 3.654978 3.802595 61.296023 6.413181 0.000011 0.000007 2.741226 -0.000001 0.000001 -0.000001 0.173495 4.467148 7.976978 85.705227 67.365398 100.653124 -0.000015 0.000008 3.350418 11.027708 62.055697 21.495932 0.000011 -0.000027 2.842758 13.027666 62.055656 21.495912 0.000001 -0.000000 2.639699 0.000000 -0.000002 -0.000000 -0.000001 -0.000056 0.000012 -0.000001 -0.000001 -0.000002 0.000001 0.000003 -0.000003 -0.000001 -0.000002 0.000001 -11.289985 0.000011 0.000010 -10.978203 1.388066 -1.984877 -0.000033 0.000025 -38.200302 -0.114771 0.070295 29.739900 -0.000018 -0.000004 -39.900864 -10.419252 0.905488 6.289146 0.000016 -15.261753 0.000021 0.903625 0.524455 -17.569965 -0.000000 -7.370728 0.000002 -0.000000 -0.000000 -0.000000 0.000000 0.000000 0.000001 -0.000000 0.000000 -0.000001 -0.000027 -0.000001 -0.000003 0.000000 0.000000 -0.000001 11.315641 0.000019 0.000000 -2.842069 -3.367120 -13.886896 -0.000035 -0.000013 -38.200344 -0.334790 0.216733 32.917451 0.000003 0.000003 -39.900864 18.512172 -1.120682 14.332616 -0.000038 -15.261702 0.000019 -0.317634 -0.239604 -21.448594 -0.000022 -7.539976 0.000002 -0.000000 -0.000000 0.000000 -0.000004 0.000000 0.000001 -0.000000 -0.000000 -0.000000 -0.000046 -0.000001 0.000002 0.000000 -0.000000 0.000000 
